<?xml version="1.0" encoding="UTF-8"?>
<svg id="_Шар_1" data-name="Шар_1" xmlns="http://www.w3.org/2000/svg" version="1.1" viewBox="0 0 360.3 202.7">
  <!-- Generator: Adobe Illustrator 29.0.1, SVG Export Plug-In . SVG Version: 2.1.0 Build 192)  -->
  <defs>
    <style>
      .st0 {
        fill: #252526;
      }
    </style>
  </defs>
  <g>
    <path class="st0" d="M87,202.5l-2.2-3.3h-4.5v3.3h-2.3v-10.6h7.2c3,0,4.2,2,4.2,3.6s-.6,2.7-2.2,3.3l2.4,3.6h-2.6ZM80.3,193.9v3.2h4.6c1.8,0,2-.9,2-1.6s-.3-1.6-2-1.6h-4.6Z"/>
    <path class="st0" d="M99.7,202.5v-10.6h10.7v1.8h-8.4v2.6h6.9v1.7h-6.9v2.7h8.4v1.8h-10.7Z"/>
    <path class="st0" d="M130.4,194.1c-.9-.3-2.4-.5-4.4-.5s-3.7.2-3.7,1.2c0,2.2,9.1-.5,9.1,4.4s-3.1,3.4-6.1,3.4-3.8-.2-5.4-.4v-1.9c1.8.3,3.3.4,5.1.4s4.2-.3,4.2-1.4c0-2.4-9.1.4-9.1-4.4s3.2-3.2,5.6-3.2,4.1.3,4.9.5v1.9Z"/>
    <path class="st0" d="M144.9,202.5v-8.6h-4.8v-2h11.9v2h-4.8v8.6h-2.3Z"/>
    <path class="st0" d="M169.1,200.7h-7.2l-1.2,1.8h-2.6l7.3-10.8,7.3,10.8h-2.6l-1.2-1.8ZM163.2,198.8h4.7l-2.4-3.6-2.4,3.6Z"/>
    <path class="st0" d="M191.7,191.9h2.3v5.4c0,4-3.1,5.4-6.1,5.4s-6.1-1.4-6.1-5.4v-5.4h2.3v5.4c0,2.6,1.8,3.5,3.8,3.5s3.8-.9,3.8-3.5v-5.4Z"/>
    <path class="st0" d="M213.8,202.5l-2.2-3.3h-4.5v3.3h-2.3v-10.6h7.2c3,0,4.2,2,4.2,3.6s-.6,2.7-2.2,3.3l2.4,3.6h-2.6ZM207,193.9v3.2h4.6c1.8,0,2-.9,2-1.6s-.3-1.6-2-1.6h-4.6Z"/>
    <path class="st0" d="M235.5,200.7h-7.2l-1.2,1.8h-2.6l7.3-10.8,7.3,10.8h-2.6l-1.2-1.8ZM229.6,198.8h4.7l-2.4-3.6-2.4,3.6Z"/>
    <path class="st0" d="M250.7,195.9v6.6h-2.3v-10.8l10,6.7v-6.6h2.3v10.8l-10-6.8Z"/>
    <path class="st0" d="M275.2,202.5v-8.6h-4.8v-2h11.9v2h-4.8v8.6h-2.3Z"/>
  </g>
  <g>
    <path class="st0" d="M85.9,10.8V.2h10.7v1.8h-8.4v2.6h6.9v1.7h-6.9v2.7h8.4v1.8h-10.7Z"/>
    <path class="st0" d="M116.5.2h2.3v5.4c0,4-3.1,5.4-6.1,5.4s-6.1-1.4-6.1-5.4V.2h2.3v5.4c0,2.6,1.8,3.5,3.8,3.5s3.8-.9,3.8-3.5V.2Z"/>
    <path class="st0" d="M138.6,10.8l-2.2-3.3h-4.5v3.3h-2.3V.2h7.2c3,0,4.2,2,4.2,3.6s-.6,2.7-2.2,3.3l2.4,3.6h-2.6ZM131.8,2.2v3.2h4.6c1.8,0,2-.9,2-1.6s-.3-1.6-2-1.6h-4.6Z"/>
    <path class="st0" d="M157.8,11c-4.1,0-7.4-2.1-7.4-5.5s3.3-5.5,7.4-5.5,7.4,2,7.4,5.5-3.3,5.5-7.4,5.5ZM157.8,2c-2.9,0-5,1.3-5,3.5s2.1,3.5,5,3.5,5-1.3,5-3.5-2.1-3.5-5-3.5Z"/>
    <path class="st0" d="M185.8,10.8v-4.3h-8.1v4.3h-2.3V.2h2.3v4.2h8.1V.2h2.3v10.6h-2.3Z"/>
    <path class="st0" d="M205.6,11c-4.1,0-7.4-2.1-7.4-5.5s3.3-5.5,7.4-5.5,7.4,2,7.4,5.5-3.3,5.5-7.4,5.5ZM205.6,2c-2.9,0-5,1.3-5,3.5s2.1,3.5,5,3.5,5-1.3,5-3.5-2.1-3.5-5-3.5Z"/>
    <path class="st0" d="M226.7,10.8V2.2h-4.8V.2h11.9v2h-4.8v8.6h-2.3Z"/>
    <path class="st0" d="M243.4,10.8V.2h10.7v1.8h-8.4v2.6h6.9v1.7h-6.9v2.7h8.4v1.8h-10.7Z"/>
    <path class="st0" d="M264.3,10.8V.2h2.3v8.6h7.7v2h-10Z"/>
  </g>
  <g>
    <path class="st0" d="M37.3,120.1l-10.3-14.7h-15.2v14.7H0v-46.4h32.9c13.2,0,17.2,9.9,17.2,15.8s-2.7,11.1-10.6,14.2l11.3,16.4h-13.5ZM11.7,83.7v11.7h18.1c6.7,0,8-3.7,8-5.9s-1.3-5.8-8-5.8H11.7Z"/>
    <path class="st0" d="M125.6,121c-20.7,0-33.8-10.1-33.8-24s13.1-24,33.8-24,33.9,10.1,33.9,24-12.5,24-33.9,24ZM125.6,82.8c-12.4,0-21.3,5.6-21.3,14.1s9,14.1,21.3,14.1,21.5-5.5,21.5-14.1-9.1-14.1-21.5-14.1Z"/>
    <path class="st0" d="M234.6,121c-20.7,0-33.8-10.1-33.8-24s13.1-24,33.8-24,33.9,10.1,33.9,24-12.5,24-33.9,24ZM234.6,82.8c-12.4,0-21.3,5.6-21.3,14.1s9,14.1,21.3,14.1,21.5-5.5,21.5-14.1-9.1-14.1-21.5-14.1Z"/>
    <path class="st0" d="M324.7,104.3v15.9h-11.6v-46.4h47.2v10h-35.5v10.6h28.3v10h-28.4Z"/>
  </g>
</svg>