<?xml version="1.0" encoding="UTF-8"?>
<svg id="_Шар_1" data-name="Шар_1" xmlns="http://www.w3.org/2000/svg" version="1.1" viewBox="0 0 269.2 255.4">
  <!-- Generator: Adobe Illustrator 29.0.1, SVG Export Plug-In . SVG Version: 2.1.0 Build 192)  -->
  <defs>
    <style>
      .st0 {
        fill: #60575d;
      }
    </style>
  </defs>
  <rect class="st0" x="130.3" y="123.4" width="8.7" height="8.7" transform="translate(-50.9 132.6) rotate(-45)"/>
  <g>
    <path class="st0" d="M11.9,135.2v16.3H0v-47.6h48.5v10.2H12v10.8h29v10.2H11.9Z"/>
    <path class="st0" d="M234.4,152.4c-21.3,0-34.7-10.3-34.7-24.7s13.5-24.7,34.7-24.7,34.8,10.3,34.8,24.7-12.8,24.7-34.8,24.7ZM234.4,113.2c-12.7,0-21.8,5.7-21.8,14.5s9.2,14.5,21.8,14.5,22-5.6,22-14.5-9.3-14.5-22-14.5Z"/>
  </g>
  <g>
    <path class="st0" d="M146.8,47.6l-10.6-15.1h-15.6v15.1h-12V0h33.7c13.6,0,17.7,10.2,17.7,16.2s-2.8,11.4-10.9,14.6l11.6,16.8h-13.8ZM120.6,10.2v12h18.6c6.8,0,8.2-3.8,8.2-6.1s-1.4-6-8.2-6h-18.6Z"/>
    <path class="st0" d="M134.5,255.4c-21.3,0-34.7-10.3-34.7-24.7s13.5-24.7,34.7-24.7,34.8,10.3,34.8,24.7-12.8,24.7-34.8,24.7ZM134.5,216.3c-12.7,0-21.8,5.7-21.8,14.5s9.2,14.5,21.8,14.5,22-5.6,22-14.5-9.3-14.5-22-14.5Z"/>
  </g>
</svg>